<?xml version="1.0" encoding="utf-8"?>
<!-- Generator: Adobe Illustrator 27.5.0, SVG Export Plug-In . SVG Version: 6.00 Build 0)  -->
<svg version="1.1" id="Layer_1" xmlns="http://www.w3.org/2000/svg" xmlns:xlink="http://www.w3.org/1999/xlink" x="0px" y="0px"
	 viewBox="0 0 7000 4081" style="enable-background:new 0 0 7000 4081;" xml:space="preserve">
<g>
	<rect x="0" style="fill-rule:evenodd;clip-rule:evenodd;fill:#003780;" width="7000" height="4081"/>
	<g>
		<defs>
			<path id="SVGID_1_" d="M3550.261,4081c-363.007-965.779-1295.187-1652.987-2387.879-1652.987
				C743.69,2428.013,348.567,2528.91,0,2707.715V4081H3550.261z"/>
		</defs>
		<clipPath id="SVGID_00000021101834392542806640000012373800755887511701_">
			<use xlink:href="#SVGID_1_"  style="overflow:visible;"/>
		</clipPath>
		
			<linearGradient id="SVGID_00000155862067427026200230000002017686693143244446_" gradientUnits="userSpaceOnUse" x1="2768.886" y1="2158.0791" x2="109.9207" y2="5091.7607">
			<stop  offset="0" style="stop-color:#5EFAF7"/>
			<stop  offset="1" style="stop-color:#004790"/>
		</linearGradient>
		
			<rect x="0" y="2428.013" style="clip-path:url(#SVGID_00000021101834392542806640000012373800755887511701_);fill:url(#SVGID_00000155862067427026200230000002017686693143244446_);" width="3550.261" height="1652.987"/>
	</g>
	<g>
		<defs>
			<path id="SVGID_00000021090119812747078740000016194609603647472050_" d="M0,2842.579V4081h2660.419
				c-440.511-763.813-1265.457-1277.987-2210.573-1277.987C296.349,2803.013,146.028,2816.591,0,2842.579"/>
		</defs>
		<clipPath id="SVGID_00000028302381415668728040000003298021541709805726_">
			<use xlink:href="#SVGID_00000021090119812747078740000016194609603647472050_"  style="overflow:visible;"/>
		</clipPath>
		
			<linearGradient id="SVGID_00000062873559481051768620000008597324145383723180_" gradientUnits="userSpaceOnUse" x1="1851.9235" y1="2858.7141" x2="-29.012" y2="4961.6582">
			<stop  offset="0" style="stop-color:#5EFAF7"/>
			<stop  offset="1" style="stop-color:#004790"/>
		</linearGradient>
		
			<rect x="0" y="2803.013" style="clip-path:url(#SVGID_00000028302381415668728040000003298021541709805726_);fill:url(#SVGID_00000062873559481051768620000008597324145383723180_);" width="2660.419" height="1277.987"/>
	</g>
	<g>
		<defs>
			<path id="SVGID_00000092448124981702682510000006798083482765412486_" d="M2206.842,2651.013
				c1.953-40.93,2.942-82.114,2.942-123.527C2209.784,1234.554,1247.485,166.367,0,0v2707.715
				c348.567-178.805,743.69-279.702,1162.382-279.702C1534.536,2428.013,1888.072,2507.728,2206.842,2651.013"/>
		</defs>
		<clipPath id="SVGID_00000090257647982538006730000016944364847741193368_">
			<use xlink:href="#SVGID_00000092448124981702682510000006798083482765412486_"  style="overflow:visible;"/>
		</clipPath>
		
			<linearGradient id="SVGID_00000031194999414198796190000016659952500608019386_" gradientUnits="userSpaceOnUse" x1="2174.3779" y1="-498.5282" x2="462.3935" y2="2466.6858">
			<stop  offset="0" style="stop-color:#5EFAF7"/>
			<stop  offset="1" style="stop-color:#004790"/>
		</linearGradient>
		
			<rect x="0" style="clip-path:url(#SVGID_00000090257647982538006730000016944364847741193368_);fill:url(#SVGID_00000031194999414198796190000016659952500608019386_);" width="2209.784" height="2707.715"/>
	</g>
	<g>
		<defs>
			<path id="SVGID_00000093885269623135672640000000131177825378934697_" d="M0,234.04v2473.674
				c348.567-178.805,743.69-279.702,1162.382-279.702c6.985,0,13.961,0.038,20.934,0.094
				c11.019-88.07,16.747-177.787,16.747-268.843C1200.063,1313.994,710.762,583.101,0,234.04"/>
		</defs>
		<clipPath id="SVGID_00000065794215232610002270000012352159342583251620_">
			<use xlink:href="#SVGID_00000093885269623135672640000000131177825378934697_"  style="overflow:visible;"/>
		</clipPath>
		
			<linearGradient id="SVGID_00000018935271728152343970000010570140361568132505_" gradientUnits="userSpaceOnUse" x1="1189.9597" y1="636.5012" x2="-157.8908" y2="2542.8591">
			<stop  offset="0" style="stop-color:#5EFAF7"/>
			<stop  offset="1" style="stop-color:#004790"/>
		</linearGradient>
		
			<rect x="0" y="234.04" style="clip-path:url(#SVGID_00000065794215232610002270000012352159342583251620_);fill:url(#SVGID_00000018935271728152343970000010570140361568132505_);" width="1200.063" height="2473.674"/>
	</g>
	<g>
		<defs>
			<path id="SVGID_00000030488563225077367300000017556485848845711546_" d="M2209.049,2589.268
				c-0.492,20.643-1.227,41.226-2.208,61.746C2824.024,2928.431,3310.889,3444.151,3550.261,4081h1446.584
				c-393.243-901.248-1292.279-1531.191-2338.456-1531.191C2505.073,2549.809,2354.917,2563.339,2209.049,2589.268"/>
		</defs>
		<clipPath id="SVGID_00000023281031561197071870000017198760257961968059_">
			<use xlink:href="#SVGID_00000030488563225077367300000017556485848845711546_"  style="overflow:visible;"/>
		</clipPath>
		
			<linearGradient id="SVGID_00000039840286519587887420000017160971923385002405_" gradientUnits="userSpaceOnUse" x1="4129.2915" y1="2050.0005" x2="3413.1934" y2="3767.9961">
			<stop  offset="0" style="stop-color:#5EFAF7"/>
			<stop  offset="1" style="stop-color:#004790"/>
		</linearGradient>
		
			<rect x="2206.842" y="2549.809" style="clip-path:url(#SVGID_00000023281031561197071870000017198760257961968059_);fill:url(#SVGID_00000039840286519587887420000017160971923385002405_);" width="2790.003" height="1531.191"/>
	</g>
	<g>
		<defs>
			<path id="SVGID_00000015349194031513212430000004345902698521892013_" d="M2796.272,3020.117
				c335.261,280.054,597.514,644.577,753.989,1060.883h1121.484C4245.655,3485.041,3569.356,3080.211,2796.272,3020.117"/>
		</defs>
		<clipPath id="SVGID_00000078040933886778681000000007508866830876485822_">
			<use xlink:href="#SVGID_00000015349194031513212430000004345902698521892013_"  style="overflow:visible;"/>
		</clipPath>
		
			<linearGradient id="SVGID_00000054945275583371898750000015931443527551983261_" gradientUnits="userSpaceOnUse" x1="4173.0815" y1="2725.5337" x2="3279.6838" y2="4404.2412">
			<stop  offset="0" style="stop-color:#5EFAF7"/>
			<stop  offset="1" style="stop-color:#004790"/>
		</linearGradient>
		
			<rect x="2796.272" y="3020.117" style="clip-path:url(#SVGID_00000078040933886778681000000007508866830876485822_);fill:url(#SVGID_00000054945275583371898750000015931443527551983261_);" width="1875.473" height="1060.883"/>
	</g>
	<g>
		<defs>
			<path id="SVGID_00000011723482357487176140000012122226397677323409_" d="M5280.854,3414.459
				c-221.093,0-435.616,28.135-640.182,81.019c143.532,177.107,263.803,373.83,356.172,585.522H7000
				C6546.618,3666.98,5943.229,3414.459,5280.854,3414.459"/>
		</defs>
		<clipPath id="SVGID_00000069379097532358417540000009748901826655292816_">
			<use xlink:href="#SVGID_00000011723482357487176140000012122226397677323409_"  style="overflow:visible;"/>
		</clipPath>
		
			<linearGradient id="SVGID_00000096746539793929547560000005368462823448973206_" gradientUnits="userSpaceOnUse" x1="5952.9497" y1="3129.6243" x2="5772.9043" y2="3968.8088">
			<stop  offset="0" style="stop-color:#5EFAF7"/>
			<stop  offset="1" style="stop-color:#004790"/>
		</linearGradient>
		
			<rect x="4640.672" y="3414.459" style="clip-path:url(#SVGID_00000069379097532358417540000009748901826655292816_);fill:url(#SVGID_00000096746539793929547560000005368462823448973206_);" width="2359.327" height="666.541"/>
	</g>
</g>
</svg>
